<?xml version="1.0" encoding="iso-8859-1"?>
<!-- Generator: Adobe Illustrator 19.0.0, SVG Export Plug-In . SVG Version: 6.00 Build 0)  -->
<svg version="1.1" id="Layer_1" xmlns="http://www.w3.org/2000/svg" xmlns:xlink="http://www.w3.org/1999/xlink" x="0px" y="0px"
	 viewBox="0 0 512 512" style="enable-background:new 0 0 512 512;" xml:space="preserve">
<g>
	<g>
		<polygon points="409.735,366.587 409.735,326.441 378.388,326.441 378.388,366.587 340.245,366.587 340.245,397.934 
			378.388,397.934 378.388,438.08 409.735,438.08 409.735,397.934 447.877,397.934 447.877,366.587 		"/>
	</g>
</g>
<g>
	<g>
		<rect x="342.204" y="61.631" width="20.609" height="20.609"/>
	</g>
</g>
<g>
	<g>
		<rect x="374.481" y="61.631" width="20.607" height="20.609"/>
	</g>
</g>
<g>
	<g>
		<rect x="406.758" y="61.631" width="20.607" height="20.609"/>
	</g>
</g>
<g>
	<g>
		<rect x="137.373" y="164.571" width="196.514" height="31.347"/>
	</g>
</g>
<g>
	<g>
		<path d="M471.249,293.095V11.8H0v403.454h280.822c0.077,0.265,0.147,0.538,0.226,0.802c7.117,23.824,22.006,45.244,41.927,60.316
			c20.605,15.589,45.188,23.829,71.088,23.829C459.093,500.2,512,447.293,512,382.262C512,347.594,497.241,315.53,471.249,293.095z
			 M329.395,43.146h110.507v56.481H329.395V43.146z M31.347,43.146h266.701v56.481H31.347V43.146z M281.535,346.836
			c-0.07,0.22-0.136,0.443-0.204,0.665c-0.334,1.088-0.653,2.182-0.955,3.281c-0.093,0.337-0.186,0.675-0.277,1.014
			c-0.275,1.035-0.534,2.075-0.782,3.119c-0.079,0.334-0.164,0.668-0.24,1.003c-0.609,2.678-1.127,5.384-1.551,8.117
			c-0.072,0.463-0.132,0.929-0.199,1.393c-0.129,0.9-0.251,1.801-0.358,2.706c-0.064,0.533-0.12,1.067-0.177,1.602
			c-0.091,0.862-0.172,1.726-0.245,2.591c-0.044,0.531-0.088,1.062-0.125,1.593c-0.065,0.931-0.115,1.865-0.158,2.801
			c-0.021,0.455-0.048,0.908-0.064,1.362c-0.048,1.389-0.078,2.781-0.078,4.177c0,0.549,0.004,1.097,0.013,1.646H31.347V130.974
			h408.555v142.564c-1.18-0.498-2.369-0.971-3.563-1.429c-0.275-0.106-0.55-0.209-0.826-0.312c-1.306-0.491-2.617-0.964-3.94-1.407
			c-0.095-0.031-0.19-0.061-0.285-0.092c-1.265-0.42-2.54-0.815-3.82-1.192c-0.254-0.074-0.506-0.151-0.761-0.225
			c-1.321-0.379-2.648-0.735-3.982-1.067c-0.255-0.064-0.51-0.123-0.766-0.185c-1.29-0.311-2.585-0.606-3.887-0.874
			c-0.112-0.023-0.222-0.049-0.332-0.071c-1.369-0.278-2.746-0.525-4.127-0.753c-0.294-0.049-0.588-0.097-0.883-0.143
			c-1.371-0.217-2.746-0.414-4.128-0.583c-0.189-0.023-0.379-0.042-0.568-0.064c-1.17-0.137-2.344-0.255-3.521-0.357v-36.257H67.918
			v83.302h231.508C291.538,322.401,285.489,334.223,281.535,346.836z M373.163,259.875v6.299c-1.899,0.34-3.789,0.725-5.666,1.159
			c-0.029,0.006-0.059,0.014-0.088,0.02c-0.893,0.207-1.784,0.424-2.672,0.652c-0.064,0.017-0.128,0.031-0.191,0.048
			c-0.844,0.217-1.684,0.446-2.523,0.682c-0.106,0.029-0.211,0.057-0.316,0.088c-0.567,0.162-1.133,0.33-1.697,0.5
			c-0.161,0.048-0.321,0.097-0.481,0.145c-0.063,0.019-0.125,0.038-0.188,0.057c-0.147,0.045-0.295,0.088-0.441,0.134
			c-0.736,0.23-1.468,0.47-2.2,0.715c-0.191,0.064-0.383,0.124-0.575,0.189c-0.237,0.08-0.474,0.165-0.711,0.248
			c-0.189,0.066-0.376,0.134-0.564,0.201c-0.263,0.093-0.527,0.185-0.789,0.28c-0.223,0.08-0.447,0.157-0.67,0.238
			c-0.753,0.277-1.503,0.565-2.252,0.858c-0.141,0.055-0.283,0.106-0.424,0.162c-1.166,0.461-2.325,0.95-3.479,1.45
			c-0.374,0.162-0.748,0.326-1.12,0.491c-0.821,0.367-1.639,0.744-2.453,1.131c-0.861,0.406-1.714,0.828-2.563,1.255
			c-0.337,0.17-0.677,0.339-1.014,0.513c-1.911,0.983-3.795,2.01-5.645,3.094H99.265v-20.609H373.163z M394.061,468.853
			c-37.994,0-72.117-25.4-82.977-61.766c-0.968-3.24-1.761-6.653-2.358-10.149c-0.834-4.873-1.256-9.812-1.256-14.677
			c0-1.025,0.022-2.047,0.057-3.066c0.014-0.379,0.036-0.756,0.053-1.135c0.029-0.623,0.063-1.245,0.106-1.866
			c0.033-0.485,0.073-0.969,0.114-1.452c0.041-0.482,0.087-0.961,0.136-1.441c0.06-0.576,0.12-1.15,0.19-1.723
			c0.038-0.309,0.081-0.616,0.122-0.925c3.35-25.026,17.436-47.393,39.109-61.309c3.466-2.225,7.079-4.192,10.781-5.888
			c0.143-0.066,0.285-0.134,0.428-0.199c1.215-0.549,2.44-1.071,3.673-1.559h0.001c1.18-0.466,2.369-0.9,3.563-1.312
			c0.443-0.153,0.889-0.289,1.334-0.435c0.745-0.243,1.491-0.485,2.242-0.707c0.562-0.166,1.126-0.321,1.692-0.475
			c0.634-0.174,1.27-0.345,1.908-0.504c0.627-0.157,1.256-0.305,1.887-0.448c0.577-0.131,1.156-0.253,1.734-0.371
			c0.674-0.138,1.348-0.273,2.025-0.394c0.536-0.096,1.075-0.18,1.613-0.266c0.713-0.114,1.425-0.231,2.142-0.327
			c0.487-0.066,0.977-0.114,1.466-0.171c1.656-0.194,3.322-0.345,4.995-0.444c0.267-0.016,0.533-0.043,0.8-0.056
			c0.319-0.016,0.615-0.023,0.925-0.036c1.162-0.046,2.325-0.08,3.493-0.08c18.968,0,36.977,6.02,52.077,17.407l0.001,0.001
			c21.933,16.541,34.514,41.757,34.514,69.183C480.653,430.007,441.808,468.853,394.061,468.853z"/>
	</g>
</g>
<g>
</g>
<g>
</g>
<g>
</g>
<g>
</g>
<g>
</g>
<g>
</g>
<g>
</g>
<g>
</g>
<g>
</g>
<g>
</g>
<g>
</g>
<g>
</g>
<g>
</g>
<g>
</g>
<g>
</g>
</svg>
